<svg width="119" height="121" viewBox="0 0 119 121" fill="none" xmlns="http://www.w3.org/2000/svg">
<g filter="url(#filter0_d_1229_6)">
<rect x="7.71295" width="104.676" height="82.1589" fill="#3683F7"/>
</g>
<path d="M27.6381 31.6458C27.6381 29.2458 28.6941 28.3338 30.3741 28.3338C32.0541 28.3338 33.1101 29.2458 33.1101 31.6458V49.7898C33.1101 52.1898 32.0541 53.1018 30.3741 53.1018C28.6941 53.1018 27.6381 52.1898 27.6381 49.7898V31.6458ZM22.3581 49.4538C22.3581 54.8298 25.1901 57.9018 30.3741 57.9018C35.5581 57.9018 38.3901 54.8298 38.3901 49.4538V31.9818C38.3901 26.6058 35.5581 23.5338 30.3741 23.5338C25.1901 23.5338 22.3581 26.6058 22.3581 31.9818V49.4538ZM49.5974 23.9178H41.8214V57.5178H47.1014V44.8938H49.5974C54.8774 44.8938 57.4694 41.9658 57.4694 36.5898V32.2218C57.4694 26.8458 54.8774 23.9178 49.5974 23.9178ZM49.5974 28.7178C51.2774 28.7178 52.1894 29.4858 52.1894 31.8858V36.9258C52.1894 39.3258 51.2774 40.0938 49.5974 40.0938H47.1014V28.7178H49.5974ZM65.4295 28.7178H74.5495V23.9178H60.1495V57.5178H74.5495V52.7178H65.4295V42.8778H72.6775V38.0778H65.4295V28.7178ZM89.1014 57.5178H94.5254V23.9178H89.8214V44.0298L84.3974 23.9178H77.7734V57.5178H82.5254V33.1818L89.1014 57.5178Z" fill="white"/>
<g filter="url(#filter1_d_1229_6)">
<path d="M59.5 112.479L111.029 82.4034H7.97149L59.5 112.479Z" fill="#3683F7"/>
</g>
<path d="M19.1519 74.1708L20.4746 69.9081H21.3447L19.4375 75.3969C19.3936 75.514 19.335 75.64 19.2617 75.7748C19.1914 75.9125 19.1006 76.0428 18.9893 76.1659C18.878 76.2889 18.7432 76.3885 18.585 76.4647C18.4297 76.5438 18.2437 76.5834 18.0269 76.5834C17.9624 76.5834 17.8804 76.5746 17.7808 76.557C17.6812 76.5394 17.6109 76.5248 17.5698 76.5131L17.5655 75.8539C17.5889 75.8568 17.6255 75.8597 17.6753 75.8627C17.7281 75.8685 17.7647 75.8715 17.7852 75.8715C17.9697 75.8715 18.1265 75.8466 18.2554 75.7968C18.3843 75.7499 18.4927 75.6693 18.5806 75.5551C18.6714 75.4437 18.749 75.2899 18.8135 75.0936L19.1519 74.1708ZM18.1807 69.9081L19.4156 73.5995L19.6265 74.4564L19.042 74.7552L17.293 69.9081H18.1807ZM21.793 72.3383V72.2372C21.793 71.8944 21.8428 71.5765 21.9424 71.2836C22.042 70.9877 22.1856 70.7313 22.3731 70.5145C22.5606 70.2948 22.7876 70.1249 23.0542 70.0048C23.3208 69.8817 23.6197 69.8202 23.9507 69.8202C24.2847 69.8202 24.585 69.8817 24.8516 70.0048C25.1211 70.1249 25.3496 70.2948 25.5371 70.5145C25.7276 70.7313 25.8726 70.9877 25.9722 71.2836C26.0718 71.5765 26.1216 71.8944 26.1216 72.2372V72.3383C26.1216 72.681 26.0718 72.9989 25.9722 73.2919C25.8726 73.5848 25.7276 73.8412 25.5371 74.0609C25.3496 74.2777 25.1226 74.4476 24.856 74.5707C24.5923 74.6908 24.2935 74.7509 23.9595 74.7509C23.6255 74.7509 23.3252 74.6908 23.0586 74.5707C22.792 74.4476 22.5635 74.2777 22.3731 74.0609C22.1856 73.8412 22.042 73.5848 21.9424 73.2919C21.8428 72.9989 21.793 72.681 21.793 72.3383ZM22.606 72.2372V72.3383C22.606 72.5756 22.6338 72.7997 22.6895 73.0106C22.7451 73.2186 22.8286 73.4032 22.94 73.5643C23.0542 73.7255 23.1963 73.8529 23.3662 73.9467C23.5362 74.0375 23.7339 74.0829 23.9595 74.0829C24.1822 74.0829 24.377 74.0375 24.544 73.9467C24.7139 73.8529 24.8545 73.7255 24.9658 73.5643C25.0772 73.4032 25.1607 73.2186 25.2163 73.0106C25.2749 72.7997 25.3042 72.5756 25.3042 72.3383V72.2372C25.3042 72.0028 25.2749 71.7816 25.2163 71.5736C25.1607 71.3627 25.0757 71.1766 24.9614 71.0155C24.8501 70.8514 24.7095 70.7225 24.5396 70.6288C24.3726 70.535 24.1763 70.4882 23.9507 70.4882C23.7281 70.4882 23.5318 70.535 23.3618 70.6288C23.1948 70.7225 23.0542 70.8514 22.94 71.0155C22.8286 71.1766 22.7451 71.3627 22.6895 71.5736C22.6338 71.7816 22.606 72.0028 22.606 72.2372ZM30.0503 73.5643V69.9081H30.8677V74.663H30.0899L30.0503 73.5643ZM30.2041 72.5624L30.5425 72.5536C30.5425 72.87 30.5088 73.163 30.4414 73.4325C30.377 73.6991 30.2715 73.9305 30.125 74.1268C29.9785 74.3231 29.7866 74.4769 29.5493 74.5883C29.312 74.6967 29.0235 74.7509 28.6836 74.7509C28.4522 74.7509 28.2398 74.7172 28.0464 74.6498C27.856 74.5824 27.6919 74.4784 27.5542 74.3378C27.4165 74.1971 27.3096 74.014 27.2334 73.7885C27.1602 73.5629 27.1236 73.2919 27.1236 72.9755V69.9081H27.9365V72.9843C27.9365 73.1981 27.96 73.3754 28.0069 73.516C28.0567 73.6537 28.1226 73.7635 28.2046 73.8456C28.2896 73.9247 28.3833 73.9803 28.4859 74.0126C28.5913 74.0448 28.6997 74.0609 28.8111 74.0609C29.1568 74.0609 29.4307 73.995 29.6328 73.8632C29.835 73.7284 29.98 73.5482 30.0679 73.3226C30.1587 73.0941 30.2041 72.8407 30.2041 72.5624ZM32.9199 70.6552V74.663H32.107V69.9081H32.898L32.9199 70.6552ZM34.4053 69.8817L34.4009 70.6376C34.3335 70.6229 34.2691 70.6141 34.2075 70.6112C34.1489 70.6053 34.0816 70.6024 34.0054 70.6024C33.8179 70.6024 33.6524 70.6317 33.5088 70.6903C33.3653 70.7489 33.2437 70.8309 33.1441 70.9364C33.0445 71.0419 32.9654 71.1678 32.9068 71.3143C32.8511 71.4579 32.8145 71.6161 32.7969 71.7889L32.5684 71.9208C32.5684 71.6337 32.5962 71.3641 32.6519 71.1122C32.7105 70.8602 32.7998 70.6376 32.9199 70.4442C33.0401 70.2479 33.1924 70.0956 33.377 69.9872C33.5645 69.8759 33.7871 69.8202 34.0449 69.8202C34.1035 69.8202 34.1709 69.8275 34.2471 69.8422C34.3233 69.8539 34.376 69.8671 34.4053 69.8817ZM40.3863 73.7401V67.913H41.2036V74.663H40.4566L40.3863 73.7401ZM37.187 72.3383V72.246C37.187 71.8827 37.231 71.5531 37.3189 71.2572C37.4097 70.9584 37.5371 70.702 37.7012 70.4882C37.8682 70.2743 38.0659 70.1102 38.2945 69.996C38.5259 69.8788 38.7837 69.8202 39.0679 69.8202C39.3667 69.8202 39.6275 69.8729 39.8501 69.9784C40.0757 70.0809 40.2661 70.2318 40.4214 70.431C40.5796 70.6273 40.7041 70.8646 40.7949 71.1429C40.8858 71.4213 40.9488 71.7362 40.9839 72.0878V72.4921C40.9517 72.8407 40.8887 73.1542 40.7949 73.4325C40.7041 73.7108 40.5796 73.9481 40.4214 74.1444C40.2661 74.3407 40.0757 74.4916 39.8501 74.597C39.6245 74.6996 39.3609 74.7509 39.0591 74.7509C38.7808 74.7509 38.5259 74.6908 38.2945 74.5707C38.0659 74.4506 37.8682 74.2821 37.7012 74.0653C37.5371 73.8485 37.4097 73.5936 37.3189 73.3007C37.231 73.0048 37.187 72.684 37.187 72.3383ZM38.0044 72.246V72.3383C38.0044 72.5756 38.0279 72.7982 38.0747 73.0062C38.1245 73.2142 38.2007 73.3973 38.3032 73.5555C38.4058 73.7137 38.5362 73.8383 38.6944 73.9291C38.8526 74.017 39.0415 74.0609 39.2613 74.0609C39.5308 74.0609 39.752 74.0038 39.9248 73.8895C40.1006 73.7753 40.2412 73.6244 40.3467 73.4369C40.4522 73.2494 40.5342 73.0458 40.5928 72.826V71.767C40.5576 71.6058 40.5064 71.4506 40.439 71.3011C40.3745 71.1488 40.2896 71.014 40.1841 70.8969C40.0816 70.7767 39.9541 70.6815 39.8018 70.6112C39.6524 70.5409 39.4751 70.5057 39.27 70.5057C39.0474 70.5057 38.8555 70.5526 38.6944 70.6464C38.5362 70.7372 38.4058 70.8632 38.3032 71.0243C38.2007 71.1825 38.1245 71.3671 38.0747 71.578C38.0279 71.786 38.0044 72.0087 38.0044 72.246ZM42.2539 72.3383V72.2372C42.2539 71.8944 42.3037 71.5765 42.4033 71.2836C42.503 70.9877 42.6465 70.7313 42.834 70.5145C43.0215 70.2948 43.2486 70.1249 43.5152 70.0048C43.7818 69.8817 44.0806 69.8202 44.4116 69.8202C44.7456 69.8202 45.0459 69.8817 45.3125 70.0048C45.5821 70.1249 45.8106 70.2948 45.9981 70.5145C46.1885 70.7313 46.3335 70.9877 46.4331 71.2836C46.5327 71.5765 46.5825 71.8944 46.5825 72.2372V72.3383C46.5825 72.681 46.5327 72.9989 46.4331 73.2919C46.3335 73.5848 46.1885 73.8412 45.9981 74.0609C45.8106 74.2777 45.5835 74.4476 45.3169 74.5707C45.0532 74.6908 44.7544 74.7509 44.4204 74.7509C44.0864 74.7509 43.7862 74.6908 43.5196 74.5707C43.253 74.4476 43.0244 74.2777 42.834 74.0609C42.6465 73.8412 42.503 73.5848 42.4033 73.2919C42.3037 72.9989 42.2539 72.681 42.2539 72.3383ZM43.0669 72.2372V72.3383C43.0669 72.5756 43.0947 72.7997 43.1504 73.0106C43.2061 73.2186 43.2896 73.4032 43.4009 73.5643C43.5152 73.7255 43.6572 73.8529 43.8272 73.9467C43.9971 74.0375 44.1948 74.0829 44.4204 74.0829C44.6431 74.0829 44.8379 74.0375 45.0049 73.9467C45.1748 73.8529 45.3155 73.7255 45.4268 73.5643C45.5381 73.4032 45.6216 73.2186 45.6773 73.0106C45.7359 72.7997 45.7652 72.5756 45.7652 72.3383V72.2372C45.7652 72.0028 45.7359 71.7816 45.6773 71.5736C45.6216 71.3627 45.5366 71.1766 45.4224 71.0155C45.3111 70.8514 45.1704 70.7225 45.0005 70.6288C44.8335 70.535 44.6372 70.4882 44.4116 70.4882C44.189 70.4882 43.9927 70.535 43.8228 70.6288C43.6558 70.7225 43.5152 70.8514 43.4009 71.0155C43.2896 71.1766 43.2061 71.3627 43.1504 71.5736C43.0947 71.7816 43.0669 72.0028 43.0669 72.2372ZM48.8062 73.8192L50.0279 69.9081H50.564L50.4585 70.6859L49.2149 74.663H48.6919L48.8062 73.8192ZM47.9844 69.9081L49.0259 73.8632L49.1006 74.663H48.5513L47.1714 69.9081H47.9844ZM51.7329 73.8324L52.7261 69.9081H53.5347L52.1548 74.663H51.6099L51.7329 73.8324ZM50.6826 69.9081L51.878 73.7533L52.0142 74.663H51.4956L50.2168 70.6771L50.1114 69.9081H50.6826ZM55.1826 70.9232V74.663H54.3697V69.9081H55.1387L55.1826 70.9232ZM54.9893 72.1053L54.6509 72.0922C54.6538 71.767 54.7022 71.4667 54.7959 71.1913C54.8897 70.913 55.0215 70.6713 55.1914 70.4662C55.3614 70.2611 55.5635 70.1029 55.7979 69.9916C56.0352 69.8773 56.2974 69.8202 56.5845 69.8202C56.8189 69.8202 57.0298 69.8524 57.2173 69.9169C57.4048 69.9784 57.5645 70.078 57.6963 70.2157C57.8311 70.3534 57.9336 70.5321 58.0039 70.7518C58.0742 70.9686 58.1094 71.2338 58.1094 71.5472V74.663H57.292V71.5385C57.292 71.2894 57.2554 71.0902 57.1822 70.9408C57.1089 70.7885 57.002 70.6786 56.8614 70.6112C56.7207 70.5409 56.5479 70.5057 56.3428 70.5057C56.1406 70.5057 55.9561 70.5482 55.7891 70.6332C55.625 70.7181 55.4829 70.8353 55.3628 70.9847C55.2456 71.1342 55.1533 71.3055 55.086 71.4989C55.0215 71.6893 54.9893 71.8915 54.9893 72.1053ZM60.2276 67.913V74.663H59.4102V67.913H60.2276ZM61.3174 72.3383V72.2372C61.3174 71.8944 61.3672 71.5765 61.4668 71.2836C61.5664 70.9877 61.71 70.7313 61.8975 70.5145C62.085 70.2948 62.312 70.1249 62.5786 70.0048C62.8452 69.8817 63.1441 69.8202 63.4751 69.8202C63.8091 69.8202 64.1094 69.8817 64.376 70.0048C64.6455 70.1249 64.874 70.2948 65.0615 70.5145C65.252 70.7313 65.397 70.9877 65.4966 71.2836C65.5962 71.5765 65.646 71.8944 65.646 72.2372V72.3383C65.646 72.681 65.5962 72.9989 65.4966 73.2919C65.397 73.5848 65.252 73.8412 65.0615 74.0609C64.874 74.2777 64.647 74.4476 64.3804 74.5707C64.1167 74.6908 63.8179 74.7509 63.4839 74.7509C63.1499 74.7509 62.8496 74.6908 62.583 74.5707C62.3164 74.4476 62.0879 74.2777 61.8975 74.0609C61.71 73.8412 61.5664 73.5848 61.4668 73.2919C61.3672 72.9989 61.3174 72.681 61.3174 72.3383ZM62.1304 72.2372V72.3383C62.1304 72.5756 62.1582 72.7997 62.2139 73.0106C62.2696 73.2186 62.3531 73.4032 62.4644 73.5643C62.5786 73.7255 62.7207 73.8529 62.8906 73.9467C63.0606 74.0375 63.2583 74.0829 63.4839 74.0829C63.7066 74.0829 63.9014 74.0375 64.0684 73.9467C64.2383 73.8529 64.3789 73.7255 64.4903 73.5643C64.6016 73.4032 64.6851 73.2186 64.7407 73.0106C64.7993 72.7997 64.8286 72.5756 64.8286 72.3383V72.2372C64.8286 72.0028 64.7993 71.7816 64.7407 71.5736C64.6851 71.3627 64.6001 71.1766 64.4859 71.0155C64.3745 70.8514 64.2339 70.7225 64.064 70.6288C63.897 70.535 63.7007 70.4882 63.4751 70.4882C63.2525 70.4882 63.0562 70.535 62.8863 70.6288C62.7193 70.7225 62.5786 70.8514 62.4644 71.0155C62.3531 71.1766 62.2696 71.3627 62.2139 71.5736C62.1582 71.7816 62.1304 72.0028 62.1304 72.2372ZM69.4693 73.85V71.4022C69.4693 71.2147 69.4312 71.0521 69.355 70.9144C69.2818 70.7738 69.1704 70.6654 69.021 70.5892C68.8716 70.5131 68.687 70.475 68.4673 70.475C68.2622 70.475 68.0821 70.5101 67.9268 70.5804C67.7744 70.6508 67.6543 70.743 67.5664 70.8573C67.4815 70.9716 67.439 71.0946 67.439 71.2264H66.626C66.626 71.0565 66.6699 70.8881 66.7578 70.7211C66.8457 70.5541 66.9717 70.4032 67.1358 70.2684C67.3028 70.1307 67.502 70.0223 67.7334 69.9432C67.9678 69.8612 68.2285 69.8202 68.5156 69.8202C68.8614 69.8202 69.166 69.8788 69.4297 69.996C69.6963 70.1132 69.9043 70.2904 70.0537 70.5277C70.2061 70.7621 70.2822 71.0565 70.2822 71.411V73.6259C70.2822 73.7841 70.2954 73.9525 70.3218 74.1312C70.3511 74.3099 70.3936 74.4637 70.4492 74.5927V74.663H69.6011C69.5601 74.5692 69.5279 74.4447 69.5044 74.2894C69.481 74.1312 69.4693 73.9847 69.4693 73.85ZM69.6099 71.7802L69.6187 72.3514H68.7969C68.5655 72.3514 68.3589 72.3705 68.1773 72.4086C67.9956 72.4437 67.8433 72.4979 67.7202 72.5712C67.5972 72.6444 67.5034 72.7367 67.439 72.848C67.3745 72.9564 67.3423 73.0839 67.3423 73.2303C67.3423 73.3798 67.376 73.516 67.4434 73.639C67.5108 73.7621 67.6118 73.8602 67.7466 73.9335C67.8843 74.0038 68.0528 74.0389 68.252 74.0389C68.501 74.0389 68.7207 73.9862 68.9112 73.8807C69.1016 73.7753 69.2525 73.6464 69.3638 73.494C69.4781 73.3417 69.5396 73.1937 69.5484 73.0502L69.8955 73.4413C69.875 73.5643 69.8194 73.7006 69.7285 73.85C69.6377 73.9994 69.5161 74.1429 69.3638 74.2806C69.2144 74.4154 69.0357 74.5282 68.8277 74.619C68.6226 74.7069 68.3911 74.7509 68.1333 74.7509C67.8111 74.7509 67.5283 74.6879 67.2852 74.5619C67.0449 74.4359 66.8574 74.2675 66.7227 74.0565C66.5908 73.8427 66.5249 73.6039 66.5249 73.3402C66.5249 73.0853 66.5747 72.8612 66.6743 72.6678C66.7739 72.4716 66.9175 72.309 67.105 72.1801C67.2925 72.0482 67.5181 71.9486 67.7818 71.8812C68.0454 71.8138 68.3399 71.7802 68.6651 71.7802H69.6099ZM74.5581 73.7401V67.913H75.3755V74.663H74.6284L74.5581 73.7401ZM71.3589 72.3383V72.246C71.3589 71.8827 71.4029 71.5531 71.4907 71.2572C71.5816 70.9584 71.709 70.702 71.8731 70.4882C72.0401 70.2743 72.2378 70.1102 72.4663 69.996C72.6978 69.8788 72.9556 69.8202 73.2398 69.8202C73.5386 69.8202 73.7993 69.8729 74.022 69.9784C74.2476 70.0809 74.438 70.2318 74.5933 70.431C74.7515 70.6273 74.876 70.8646 74.9668 71.1429C75.0576 71.4213 75.1206 71.7362 75.1558 72.0878V72.4921C75.1236 72.8407 75.0606 73.1542 74.9668 73.4325C74.876 73.7108 74.7515 73.9481 74.5933 74.1444C74.438 74.3407 74.2476 74.4916 74.022 74.597C73.7964 74.6996 73.5327 74.7509 73.231 74.7509C72.9527 74.7509 72.6978 74.6908 72.4663 74.5707C72.2378 74.4506 72.0401 74.2821 71.8731 74.0653C71.709 73.8485 71.5816 73.5936 71.4907 73.3007C71.4029 73.0048 71.3589 72.684 71.3589 72.3383ZM72.1763 72.246V72.3383C72.1763 72.5756 72.1997 72.7982 72.2466 73.0062C72.2964 73.2142 72.3726 73.3973 72.4751 73.5555C72.5777 73.7137 72.708 73.8383 72.8662 73.9291C73.0244 74.017 73.2134 74.0609 73.4331 74.0609C73.7027 74.0609 73.9239 74.0038 74.0967 73.8895C74.2725 73.7753 74.4131 73.6244 74.5186 73.4369C74.624 73.2494 74.7061 73.0458 74.7647 72.826V71.767C74.7295 71.6058 74.6782 71.4506 74.6109 71.3011C74.5464 71.1488 74.4614 71.014 74.356 70.8969C74.2534 70.7767 74.126 70.6815 73.9737 70.6112C73.8242 70.5409 73.647 70.5057 73.4419 70.5057C73.2193 70.5057 73.0274 70.5526 72.8662 70.6464C72.708 70.7372 72.5777 70.8632 72.4751 71.0243C72.3726 71.1825 72.2964 71.3671 72.2466 71.578C72.1997 71.786 72.1763 72.0087 72.1763 72.246ZM78.6143 74.7509C78.2832 74.7509 77.9829 74.6952 77.7134 74.5839C77.4468 74.4696 77.2168 74.3099 77.0235 74.1049C76.833 73.8998 76.6865 73.6566 76.584 73.3754C76.4815 73.0941 76.4302 72.7865 76.4302 72.4525V72.2679C76.4302 71.8812 76.4873 71.537 76.6016 71.2352C76.7158 70.9305 76.8711 70.6727 77.0674 70.4618C77.2637 70.2509 77.4864 70.0912 77.7354 69.9828C77.9844 69.8744 78.2422 69.8202 78.5088 69.8202C78.8487 69.8202 79.1416 69.8788 79.3877 69.996C79.6367 70.1132 79.8404 70.2772 79.9986 70.4882C80.1568 70.6962 80.2739 70.9423 80.3501 71.2264C80.4263 71.5077 80.4644 71.8153 80.4644 72.1493V72.514H76.9136V71.8505H79.6514V71.7889C79.6397 71.578 79.5957 71.3729 79.5196 71.1737C79.4463 70.9745 79.3291 70.8104 79.168 70.6815C79.0069 70.5526 78.7871 70.4882 78.5088 70.4882C78.3242 70.4882 78.1543 70.5277 77.999 70.6068C77.8438 70.683 77.7105 70.7972 77.5991 70.9496C77.4878 71.1019 77.4014 71.288 77.3399 71.5077C77.2783 71.7274 77.2476 71.9808 77.2476 72.2679V72.4525C77.2476 72.6781 77.2783 72.8905 77.3399 73.0897C77.4043 73.286 77.4966 73.4589 77.6167 73.6083C77.7398 73.7577 77.8877 73.8749 78.0606 73.9598C78.2364 74.0448 78.4356 74.0873 78.6582 74.0873C78.9453 74.0873 79.1885 74.0287 79.3877 73.9115C79.5869 73.7943 79.7613 73.6376 79.9107 73.4413L80.4029 73.8324C80.3003 73.9877 80.1699 74.1356 80.0117 74.2762C79.8535 74.4169 79.6587 74.5311 79.4273 74.619C79.1988 74.7069 78.9278 74.7509 78.6143 74.7509ZM84.4107 73.7401V67.913H85.2281V74.663H84.481L84.4107 73.7401ZM81.2114 72.3383V72.246C81.2114 71.8827 81.2554 71.5531 81.3433 71.2572C81.4341 70.9584 81.5615 70.702 81.7256 70.4882C81.8926 70.2743 82.0904 70.1102 82.3189 69.996C82.5503 69.8788 82.8081 69.8202 83.0923 69.8202C83.3911 69.8202 83.6519 69.8729 83.8745 69.9784C84.1001 70.0809 84.2906 70.2318 84.4458 70.431C84.604 70.6273 84.7285 70.8646 84.8194 71.1429C84.9102 71.4213 84.9732 71.7362 85.0083 72.0878V72.4921C84.9761 72.8407 84.9131 73.1542 84.8194 73.4325C84.7285 73.7108 84.604 73.9481 84.4458 74.1444C84.2906 74.3407 84.1001 74.4916 83.8745 74.597C83.6489 74.6996 83.3853 74.7509 83.0835 74.7509C82.8052 74.7509 82.5503 74.6908 82.3189 74.5707C82.0904 74.4506 81.8926 74.2821 81.7256 74.0653C81.5615 73.8485 81.4341 73.5936 81.3433 73.3007C81.2554 73.0048 81.2114 72.684 81.2114 72.3383ZM82.0288 72.246V72.3383C82.0288 72.5756 82.0523 72.7982 82.0991 73.0062C82.1489 73.2142 82.2251 73.3973 82.3277 73.5555C82.4302 73.7137 82.5606 73.8383 82.7188 73.9291C82.877 74.017 83.0659 74.0609 83.2857 74.0609C83.5552 74.0609 83.7764 74.0038 83.9492 73.8895C84.125 73.7753 84.2656 73.6244 84.3711 73.4369C84.4766 73.2494 84.5586 73.0458 84.6172 72.826V71.767C84.5821 71.6058 84.5308 71.4506 84.4634 71.3011C84.3989 71.1488 84.314 71.014 84.2085 70.8969C84.106 70.7767 83.9785 70.6815 83.8262 70.6112C83.6768 70.5409 83.4995 70.5057 83.2945 70.5057C83.0718 70.5057 82.8799 70.5526 82.7188 70.6464C82.5606 70.7372 82.4302 70.8632 82.3277 71.0243C82.2251 71.1825 82.1489 71.3671 82.0991 71.578C82.0523 71.786 82.0288 72.0087 82.0288 72.246ZM89.8115 74.663H88.9986V69.495C88.9986 69.1346 89.0689 68.83 89.2095 68.5809C89.3501 68.3319 89.5508 68.1429 89.8115 68.014C90.0723 67.8851 90.3814 67.8207 90.7388 67.8207C90.9497 67.8207 91.1563 67.847 91.3584 67.8998C91.5606 67.9496 91.7686 68.0126 91.9824 68.0887L91.8462 68.7743C91.7114 68.7216 91.5547 68.6718 91.376 68.6249C91.2002 68.5751 91.0069 68.5502 90.7959 68.5502C90.4473 68.5502 90.1953 68.6293 90.0401 68.7875C89.8877 68.9427 89.8115 69.1786 89.8115 69.495V74.663ZM90.7827 69.9081V70.5321H88.2471V69.9081H90.7827ZM92.3823 69.9081V74.663H91.5694V69.9081H92.3823ZM94.6016 67.913V74.663H93.7842V67.913H94.6016ZM97.8799 74.7509C97.5489 74.7509 97.2486 74.6952 96.979 74.5839C96.7124 74.4696 96.4824 74.3099 96.2891 74.1049C96.0987 73.8998 95.9522 73.6566 95.8496 73.3754C95.7471 73.0941 95.6958 72.7865 95.6958 72.4525V72.2679C95.6958 71.8812 95.753 71.537 95.8672 71.2352C95.9815 70.9305 96.1367 70.6727 96.333 70.4618C96.5293 70.2509 96.752 70.0912 97.001 69.9828C97.25 69.8744 97.5078 69.8202 97.7744 69.8202C98.1143 69.8202 98.4072 69.8788 98.6533 69.996C98.9024 70.1132 99.106 70.2772 99.2642 70.4882C99.4224 70.6962 99.5396 70.9423 99.6157 71.2264C99.6919 71.5077 99.73 71.8153 99.73 72.1493V72.514H96.1792V71.8505H98.917V71.7889C98.9053 71.578 98.8614 71.3729 98.7852 71.1737C98.7119 70.9745 98.5947 70.8104 98.4336 70.6815C98.2725 70.5526 98.0528 70.4882 97.7744 70.4882C97.5899 70.4882 97.4199 70.5277 97.2647 70.6068C97.1094 70.683 96.9761 70.7972 96.8648 70.9496C96.7534 71.1019 96.667 71.288 96.6055 71.5077C96.544 71.7274 96.5132 71.9808 96.5132 72.2679V72.4525C96.5132 72.6781 96.544 72.8905 96.6055 73.0897C96.6699 73.286 96.7622 73.4589 96.8823 73.6083C97.0054 73.7577 97.1533 73.8749 97.3262 73.9598C97.502 74.0448 97.7012 74.0873 97.9239 74.0873C98.211 74.0873 98.4541 74.0287 98.6533 73.9115C98.8526 73.7943 99.0269 73.6376 99.1763 73.4413L99.6685 73.8324C99.5659 73.9877 99.4356 74.1356 99.2774 74.2762C99.1192 74.4169 98.9243 74.5311 98.6929 74.619C98.4644 74.7069 98.1934 74.7509 97.8799 74.7509Z" fill="white"/>
<defs>
<filter id="filter0_d_1229_6" x="3.71295" y="0" width="112.676" height="90.1589" filterUnits="userSpaceOnUse" color-interpolation-filters="sRGB">
<feFlood flood-opacity="0" result="BackgroundImageFix"/>
<feColorMatrix in="SourceAlpha" type="matrix" values="0 0 0 0 0 0 0 0 0 0 0 0 0 0 0 0 0 0 127 0" result="hardAlpha"/>
<feOffset dy="4"/>
<feGaussianBlur stdDeviation="2"/>
<feColorMatrix type="matrix" values="0 0 0 0 0 0 0 0 0 0 0 0 0 0 0 0 0 0 0.25 0"/>
<feBlend mode="normal" in2="BackgroundImageFix" result="effect1_dropShadow_1229_6"/>
<feBlend mode="normal" in="SourceGraphic" in2="effect1_dropShadow_1229_6" result="shape"/>
</filter>
<filter id="filter1_d_1229_6" x="3.9715" y="82.4034" width="111.057" height="38.076" filterUnits="userSpaceOnUse" color-interpolation-filters="sRGB">
<feFlood flood-opacity="0" result="BackgroundImageFix"/>
<feColorMatrix in="SourceAlpha" type="matrix" values="0 0 0 0 0 0 0 0 0 0 0 0 0 0 0 0 0 0 127 0" result="hardAlpha"/>
<feOffset dy="4"/>
<feGaussianBlur stdDeviation="2"/>
<feColorMatrix type="matrix" values="0 0 0 0 0 0 0 0 0 0 0 0 0 0 0 0 0 0 0.25 0"/>
<feBlend mode="normal" in2="BackgroundImageFix" result="effect1_dropShadow_1229_6"/>
<feBlend mode="normal" in="SourceGraphic" in2="effect1_dropShadow_1229_6" result="shape"/>
</filter>
</defs>
</svg>
